<svg xmlns="http://www.w3.org/2000/svg" xmlns:xlink="http://www.w3.org/1999/xlink" width="500" zoomAndPan="magnify" viewBox="0 0 375 374.999991" height="500" preserveAspectRatio="xMidYMid meet" version="1.0"><defs><g/></defs><rect x="-37.5" width="450" fill="#ffffff" y="-37.499999" height="449.999989" fill-opacity="1"/><rect x="-37.5" width="450" fill="#000000" y="-37.499999" height="449.999989" fill-opacity="1"/><g fill="#ffffff" fill-opacity="1"><g transform="translate(87.492724, 297.493399)"><g><path d="M 50 -25 L 50 -50 L 25 -50 L 25 -75 L 0 -75 L 0 -150 L 25 -150 L 25 -175 L 50 -175 L 50 -200 L 175 -200 L 175 -175 L 75 -175 L 75 -150 L 50 -150 L 50 -75 L 75 -75 L 75 -50 L 125 -50 L 125 -100 L 100 -100 L 100 -125 L 175 -125 L 175 -25 Z M 50 -25 "/></g></g></g></svg>